<svg version="1.1" id="layer" xmlns="http://www.w3.org/2000/svg" xmlns:xlink="http://www.w3.org/1999/xlink" x="0px" y="0px" style="enable-background:new 0 0 652 652;" xml:space="preserve" viewBox="22.49 227.39 604.94 196.12"><style type="text/css">	.st0{fill:#FFFFFF;}	.st1{fill:#F7B234;}	.st2{fill:#92117E;}	.st3{fill:#40A52B;}	.st4{fill:#37485E;}	.st5{fill:#34495E;}	.st6{fill:none;stroke:#FFFFFF;stroke-width:5.0858;stroke-miterlimit:10;}</style><rect x="28.6" y="233.6" class="st0" width="183.9" height="183.9"></rect><path class="st1" d="M96.3,232.5H27.6v41.1c26.8-0.7,50-3.8,69.8-8.1C96.7,254.9,96.3,244,96.3,232.5z"></path><path class="st2" d="M158.3,244.9c8.8-4.3,16-8.6,21.8-12.4h-41.5c0,7.2,0.2,14.1,0.4,20.7C146.4,250.4,152.8,247.6,158.3,244.9z"></path><path class="st3" d="M143.5,296.6c7.3,43.6,21.8,67.7,34.5,81.1c16.5,17.4,32.8,19.4,35.6,19.6V260.8  C199.9,271,177,285.2,143.5,296.6z"></path><path class="st4" d="M102.4,307.7c-21.7,4.5-46.8,7.5-74.8,8.2v102.5H160c-3.1-2.4-6.2-5.1-9.2-8  C126.7,387.1,110.5,352.7,102.4,307.7z"></path><path class="st5" d="M281.1,351.6c-0.4,0.2-0.9,0.4-1.6,0.7c-0.7,0.3-1.5,0.6-2.5,0.9c-0.9,0.3-2,0.6-3.2,0.8  c-1.2,0.2-2.4,0.4-3.7,0.4c-1.4,0-2.7-0.2-3.9-0.6c-1.2-0.4-2.3-1-3.3-1.7c-0.9-0.8-1.7-1.8-2.2-2.9c-0.6-1.2-0.8-2.5-0.8-4.1v-34.7  h-6.7v-5h6.7v-16.4h6.3v16.4h23.1v5h-23.1v32.9c0.1,1.8,0.7,3.1,1.9,3.9c1.1,0.8,2.4,1.3,4,1.3c1.8,0,3.4-0.3,4.8-0.9  c1.4-0.6,2.2-1,2.6-1.3L281.1,351.6z M288.6,295.4v-9.3h6.3v9.3H288.6z M288.6,353.9v-48.4h6.3v48.4L288.6,353.9L288.6,353.9z   M328.5,354.9c-3.3,0-6.4-0.7-9.3-2.1c-2.9-1.4-5.3-3.2-7.4-5.5c-2.1-2.3-3.7-4.9-4.8-8c-1.2-3-1.7-6.2-1.7-9.4  c0-3.4,0.6-6.7,1.7-9.7c1.1-3.1,2.6-5.7,4.6-8c2-2.3,4.3-4.1,7-5.4c2.7-1.3,5.7-2,8.9-2c4.1,0,7.7,1.1,10.9,3.2  c3.2,2.1,5.7,4.7,7.5,7.8v-29.6h6.3v59.7c0,1.7,0.7,2.6,2.2,2.6v5.6c-1.1,0.2-1.9,0.3-2.5,0.3c-1.6,0-2.8-0.5-3.8-1.3  c-1-0.9-1.5-2-1.5-3.2v-5.1c-2,3.2-4.6,5.7-7.9,7.5C335.5,353.9,332.1,354.9,328.5,354.9z M329.8,349.3c1.6,0,3.3-0.3,5.1-0.9  c1.8-0.6,3.4-1.5,4.9-2.6c1.5-1.1,2.8-2.4,3.9-3.8c1.1-1.4,1.8-3,2-4.7v-15c-0.6-1.7-1.5-3.2-2.7-4.7c-1.2-1.4-2.6-2.7-4.1-3.9  c-1.5-1.1-3.1-2-4.8-2.6c-1.7-0.6-3.4-0.9-5.1-0.9c-2.6,0-5,0.6-7.1,1.7c-2.1,1.1-3.9,2.6-5.4,4.4c-1.5,1.8-2.6,3.9-3.5,6.3  c-0.8,2.4-1.3,4.8-1.3,7.3c0,2.6,0.5,5.1,1.4,7.4c0.9,2.4,2.2,4.4,3.8,6.2c1.6,1.8,3.5,3.2,5.7,4.2  C324.9,348.8,327.3,349.3,329.8,349.3z M387.6,354.9c-3.5,0-6.8-0.7-9.8-2c-3-1.3-5.6-3.2-7.7-5.5c-2.2-2.3-3.9-5-5.1-8  c-1.2-3-1.8-6.3-1.8-9.8c0-3.4,0.6-6.6,1.8-9.6c1.2-3,2.9-5.6,5.1-7.9c2.2-2.3,4.7-4,7.7-5.4c2.9-1.3,6.2-2,9.7-2  c3.5,0,6.8,0.7,9.7,2c2.9,1.3,5.5,3.1,7.6,5.4s3.7,4.9,4.9,7.9c1.2,3,1.8,6.1,1.8,9.5c0,0.5,0,1,0,1.5c0,0.5-0.1,0.8-0.1,1h-41.4  c0.2,2.6,0.8,5,1.8,7.2c1,2.2,2.3,4.1,3.9,5.7c1.6,1.6,3.4,2.9,5.5,3.8c2.1,0.9,4.3,1.3,6.7,1.3c1.6,0,3.2-0.2,4.7-0.6  c1.6-0.4,3-1,4.3-1.8c1.3-0.7,2.5-1.7,3.5-2.7c1-1.1,1.8-2.3,2.4-3.6l5.5,1.5c-0.7,1.8-1.8,3.4-3.2,4.9c-1.4,1.5-3,2.7-4.7,3.8  c-1.8,1.1-3.8,1.9-6,2.5C392.1,354.6,389.9,354.9,387.6,354.9z M405.4,327.2c-0.2-2.6-0.8-5-1.8-7.1c-1-2.1-2.3-4-3.9-5.5  c-1.6-1.5-3.4-2.7-5.5-3.6c-2.1-0.9-4.3-1.3-6.7-1.3c-2.4,0-4.6,0.4-6.7,1.3c-2.1,0.9-3.9,2.1-5.5,3.6c-1.6,1.5-2.9,3.4-3.8,5.6  c-1,2.2-1.5,4.5-1.7,7.1L405.4,327.2L405.4,327.2z M480.8,305.5h6.1l-20.7,48.4h-5.3l-10.3-24.7l-10.3,24.7H435l-20.7-48.4h6.1  l17.7,41.9l9.2-22.1l-8.3-19.7h5.4l6.3,15.8l6.2-15.8h5.4l-8.2,19.7l9.2,22.1L480.8,305.5z M506.8,354.9c-2.5,0-4.8-0.4-6.8-1.2  s-3.8-1.8-5.2-3.2c-1.5-1.4-2.6-2.9-3.4-4.7c-0.8-1.8-1.2-3.7-1.2-5.7c0-2.2,0.5-4.3,1.5-6.1c1-1.8,2.4-3.4,4.2-4.7  c1.8-1.3,3.9-2.3,6.5-3c2.5-0.7,5.3-1.1,8.3-1.1c2.4,0,4.9,0.2,7.4,0.6c2.5,0.4,4.8,1.1,6.8,1.9v-4.4c0-4.3-1.2-7.7-3.7-10.2  c-2.5-2.5-5.7-3.8-9.9-3.8c-2.6,0-5.2,0.5-7.8,1.5c-2.6,1-5.2,2.4-7.9,4.3l-2.2-4.2c3.2-2.1,6.2-3.7,9.2-4.7c3-1.1,6.1-1.6,9.3-1.6  c5.9,0,10.6,1.7,14,5.1c3.5,3.4,5.2,8.1,5.2,14.1v21.9c0,1.7,0.7,2.6,2.2,2.6v5.6c-0.5,0.1-1,0.1-1.4,0.1c-0.4,0-0.8,0-1.1,0  c-1.2,0-2.4-0.4-3.4-1.1c-1-0.7-1.6-1.9-1.7-3.3l-0.2-3.8c-2.1,2.9-4.9,5.1-8.3,6.7C513.8,354.1,510.3,354.9,506.8,354.9z   M508.3,350c2.8,0,5.6-0.6,8.3-1.8c2.7-1.2,4.9-2.9,6.6-5c0.4-0.6,0.8-1.2,1.1-1.8c0.3-0.6,0.5-1.3,0.5-1.8v-7.9  c-2.1-0.8-4.3-1.4-6.6-1.9c-2.3-0.4-4.5-0.7-6.7-0.7c-4.5,0-8.2,0.9-11,2.7c-2.8,1.8-4.2,4.4-4.2,7.6c0,1.3,0.2,2.6,0.7,3.8  c0.5,1.2,1.3,2.4,2.3,3.3c1,1,2.3,1.8,3.8,2.4C504.5,349.7,506.3,350,508.3,350z M546.1,368.9c0.3,0.1,0.6,0.1,0.9,0.1  c0.3,0,0.6,0,0.9,0c0.6,0,1.3-0.1,2-0.2c0.7-0.1,1.2-0.2,1.5-0.4c0.3-0.1,0.6-0.4,1-0.8c0.3-0.4,0.8-1.1,1.3-2.1  c0.5-1,1.2-2.5,2-4.3c0.8-1.8,1.8-4.3,3.1-7.4l-21.1-48.4h6.6l17.9,42.6l16.6-42.6h6.1L559.7,368c-0.9,2.3-2.2,4-3.8,5.1  c-1.6,1.1-3.8,1.7-6.7,1.7c-1.2,0-2.2-0.1-3.2-0.3L546.1,368.9L546.1,368.9z M608.7,354.9c-3.8,0-7.5-0.6-11.1-1.9  c-3.6-1.2-6.7-3-9.3-5.4l2.9-4.3c2.7,2.2,5.5,3.9,8.3,5c2.8,1.1,5.8,1.7,9.1,1.7c3.9,0,7-0.8,9.3-2.4c2.3-1.6,3.5-3.8,3.5-6.7  c0-1.4-0.3-2.5-0.9-3.4c-0.6-0.9-1.5-1.7-2.7-2.4c-1.2-0.7-2.7-1.3-4.6-1.8c-1.8-0.5-3.9-1.1-6.4-1.6c-2.8-0.7-5.2-1.4-7.3-2  s-3.7-1.4-5.1-2.3c-1.3-0.9-2.3-1.9-3-3.2c-0.7-1.3-1-2.9-1-4.8c0-2.4,0.5-4.5,1.4-6.4c1-1.9,2.3-3.4,3.9-4.6  c1.6-1.2,3.6-2.1,5.8-2.7c2.2-0.6,4.5-0.9,7-0.9c3.7,0,7.1,0.6,10.1,1.8c3,1.2,5.5,2.8,7.3,4.8l-3.1,3.7c-1.8-1.9-4-3.3-6.5-4.2  c-2.6-0.9-5.2-1.4-8-1.4c-1.7,0-3.2,0.2-4.6,0.5c-1.4,0.4-2.7,0.9-3.8,1.6c-1.1,0.7-1.9,1.7-2.6,2.8c-0.6,1.2-0.9,2.5-0.9,4  c0,1.3,0.2,2.4,0.7,3.2c0.4,0.8,1.1,1.5,2.1,2.1c1,0.6,2.3,1.1,3.8,1.6c1.5,0.5,3.4,1,5.5,1.4c3.1,0.7,5.8,1.5,8.2,2.2  c2.4,0.7,4.3,1.6,5.9,2.6c1.6,1,2.8,2.2,3.6,3.6c0.8,1.4,1.2,3.2,1.2,5.2c0,4.5-1.7,8-5.1,10.6C619,353.6,614.4,354.9,608.7,354.9z"></path><rect x="27.6" y="232.5" class="st6" width="185.9" height="185.9"></rect></svg>
